<?xml version="1.0" encoding="UTF-8"?>
<svg width="469px" height="55px" viewBox="0 0 469 55" version="1.1" xmlns="http://www.w3.org/2000/svg" xmlns:xlink="http://www.w3.org/1999/xlink">
    <!-- Generator: Sketch 42 (36781) - http://www.bohemiancoding.com/sketch -->
    <title>autoquest_logo</title>
    <desc>Created with Sketch.</desc>
    <defs>
        <path d="M27.39063,33.125 C25.41145,36.77085 21.50524,44.06245 15.67188,55 L0.04688,55 C3.32814,48.90622 9.83849,36.74488 19.57813,18.51562 C20.88021,20.96355 23.48436,25.8333 27.39063,33.125 Z M32.09375,36.48438 L20.53125,14.92188 C21.83334,12.47395 24.43748,7.6042 28.34375,0.3125 C33.23961,9.42713 43.00514,27.65611 57.64062,55 L42.01562,55 C41.59896,54.16666 40.73959,52.52605 39.4375,50.07812 L21.23438,50.07812 C22.4323,47.83853 24.85415,43.30733 28.5,36.48438 L32.09375,36.48438 Z M61.57448,0.3125 L75.32448,0.3125 C75.27239,9.42713 75.24635,27.65611 75.24635,55 L61.57448,55 L61.57448,0.3125 Z M79.1526,34.45312 L79.1526,20.85938 L91.3401,20.85938 C92.3297,20.85938 93.137,20.52084 93.762,19.84375 C94.4391,19.16666 94.7776,18.35938 94.7776,17.42188 C94.7776,16.43229 94.4391,15.625 93.762,15 C93.137,14.32291 92.3297,13.98438 91.3401,13.98438 L79.1526,13.98438 L79.1526,0.3125 L91.3401,0.3125 C96.0797,0.3125 100.1161,1.97915 103.4495,5.3125 C106.7828,8.64585 108.4495,12.68227 108.4495,17.42188 C108.4495,21.27606 107.3037,24.68749 105.012,27.65625 C107.3037,30.62501 108.4495,34.03644 108.4495,37.89062 C108.4495,42.63023 106.7828,46.66665 103.4495,50 C100.1161,53.33335 96.0797,55 91.3401,55 L79.1526,55 L79.1526,41.32812 L91.3401,41.32812 C92.3297,41.32812 93.137,40.98959 93.762,40.3125 C94.4391,39.6875 94.7776,38.88021 94.7776,37.89062 C94.7776,36.95312 94.4391,36.14584 93.762,35.46875 C93.137,34.79166 92.3297,34.45312 91.3401,34.45312 L79.1526,34.45312 Z M128.149,17.89062 L141.8208,17.89062 L141.8208,55 L128.149,55 L128.149,17.89062 Z M113.6958,0.3125 L155.8833,0.3125 L155.8833,13.98438 L113.6958,13.98438 L113.6958,0.3125 Z M199.4441,29.60938 L213.1941,29.60938 C212.7774,36.32816 210.0951,42.10935 205.1472,46.95313 C199.8346,52.31774 193.4024,55 185.8503,55 C178.2982,55 171.866,52.31774 166.5534,46.95313 C161.6576,42.10935 159.0013,36.32816 158.5847,29.60938 L172.3347,29.60938 C172.6993,32.57814 174.0013,35.1302 176.2409,37.26562 C178.8451,39.97397 182.0482,41.32812 185.8503,41.32812 C189.6524,41.32812 192.8815,39.97397 195.5378,37.26562 C197.7253,35.1302 199.0274,32.57814 199.4441,29.60938 Z M172.3347,25.70312 L158.5847,25.70312 C159.0013,18.98434 161.6576,13.20315 166.5534,8.35938 C171.866,2.99476 178.2982,0.3125 185.8503,0.3125 C193.4024,0.3125 199.8346,2.99476 205.1472,8.35938 C210.0951,13.20315 212.7774,18.98434 213.1941,25.70312 L199.4441,25.70312 C199.0274,22.73436 197.7253,20.15626 195.5378,17.96875 C192.8815,15.31249 189.6524,13.98438 185.8503,13.98438 C182.0482,13.98438 178.8451,15.31249 176.2409,17.96875 C174.0013,20.15626 172.6993,22.73436 172.3347,25.70312 Z M232.7529,37.42188 L232.7529,55 L219.081,55 L219.081,0.3125 L232.831,0.3125 L232.831,21.79688 C236.3727,18.20311 243.5081,11.04172 254.2373,0.3125 L269.8623,0.3125 C266.1123,4.06252 258.5602,11.58849 247.206,22.89062 C245.6956,24.45313 242.6488,27.52602 238.0654,32.10938 L232.7529,37.42188 Z M248.8467,25.23438 C252.3363,30.18232 259.3414,40.10409 269.8623,55 L254.2373,55 C251.7893,51.56248 246.9456,44.68755 239.706,34.375 L248.8467,25.23438 Z M273.7961,0.3125 L287.5461,0.3125 C287.494,9.42713 287.468,27.65611 287.468,55 L273.7961,55 L273.7961,0.3125 Z M291.3743,34.45312 L291.3743,20.85938 L303.5618,20.85938 C304.5513,20.85938 305.3586,20.52084 305.9836,19.84375 C306.6607,19.16666 306.9993,18.35938 306.9993,17.42188 C306.9993,16.43229 306.6607,15.625 305.9836,15 C305.3586,14.32291 304.5513,13.98438 303.5618,13.98438 L291.3743,13.98438 L291.3743,0.3125 L303.5618,0.3125 C308.3014,0.3125 312.3378,1.97915 315.6711,5.3125 C319.0045,8.64585 320.6711,12.68227 320.6711,17.42188 C320.6711,21.27606 319.5253,24.68749 317.2336,27.65625 C319.5253,30.62501 320.6711,34.03644 320.6711,37.89062 C320.6711,42.63023 319.0045,46.66665 315.6711,50 C312.3378,53.33335 308.3014,55 303.5618,55 L291.3743,55 L291.3743,41.32812 L303.5618,41.32812 C304.5513,41.32812 305.3586,40.98959 305.9836,40.3125 C306.6607,39.6875 306.9993,38.88021 306.9993,37.89062 C306.9993,36.95312 306.6607,36.14584 305.9836,35.46875 C305.3586,34.79166 304.5513,34.45312 303.5618,34.45312 L291.3743,34.45312 Z M326.5581,0.3125 L340.3081,0.3125 C340.256,9.42713 340.23,27.65611 340.23,55 L326.5581,55 L326.5581,0.3125 Z M344.1362,0.3125 L365.6206,0.3125 L365.6206,13.98438 L344.1362,13.98438 L344.1362,0.3125 Z M344.1362,41.32812 L365.6206,41.32812 L365.6206,55 L344.1362,55 L344.1362,41.32812 Z M344.1362,20.85938 L365.6206,20.85938 L365.6206,34.45312 L344.1362,34.45312 L344.1362,20.85938 Z M396.9763,41.25 L396.9763,54.92188 C390.2575,54.50521 384.4763,51.84898 379.6326,46.95312 C374.268,41.6406 371.5857,35.20837 371.5857,27.65625 C371.5857,20.10413 374.268,13.6719 379.6326,8.35938 C384.4763,3.46352 390.2575,0.80729 396.9763,0.39062 L396.9763,14.0625 C394.0076,14.47917 391.4555,15.78124 389.3201,17.96875 C386.6117,20.62501 385.2576,23.85415 385.2576,27.65625 C385.2576,31.45835 386.6117,34.66145 389.3201,37.26563 C391.4555,39.50522 394.0076,40.83333 396.9763,41.25 Z M410.3357,20 C409.8669,19.32291 409.294,18.64584 408.617,17.96875 C406.4294,15.78124 403.8513,14.47917 400.8826,14.0625 L400.8826,0.39062 C407.6014,0.80729 413.3826,3.46352 418.2263,8.35938 C419.5805,9.66146 420.7263,11.04166 421.6638,12.5 C419.1638,14.16667 415.3878,16.66665 410.3357,20 Z M421.6638,42.8125 C420.7263,44.27084 419.5805,45.65104 418.2263,46.95312 C413.3826,51.84898 407.6014,54.50521 400.8826,54.92188 L400.8826,41.25 C403.8513,40.83333 406.4294,39.50522 408.617,37.26562 C409.294,36.64062 409.8669,35.98959 410.3357,35.3125 C412.8357,36.97917 416.6117,39.47915 421.6638,42.8125 Z M440.9121,17.875 L454.584,17.875 L454.584,54.98438 L440.9121,54.98438 L440.9121,17.875 Z M426.459,0.29688 L468.6465,0.29688 L468.6465,13.96875 L426.459,13.96875 L426.459,0.29688 Z" id="path-1"></path>
    </defs>
    <g id="Page-1" stroke="none" stroke-width="1" fill="none" fill-rule="evenodd">
        <g id="autoquest_logo" transform="translate(-16.000000, -15.000000)">
            <g id="Group-3" fill-opacity="0" fill="#FFFFFF">
                <polygon id="Fill-1" points="0 85 500 85 500 0 0 0"></polygon>
                <polygon id="Fill-2" points="0 85 500 85 500 0 0 0"></polygon>
            </g>
            <g id="Group-6" transform="translate(16.000000, 15.000000)">
                <mask id="mask-2" fill="white">
                    <use xlink:href="#path-1"></use>
                </mask>
                <g id="Clip-5"></g>
                <polygon id="Fill-4" fill="#FFFFFF" mask="url(#mask-2)" points="-5 69.70313 483.5996 69.70313 483.5996 -5 -5 -5"></polygon>
            </g>
        </g>
    </g>
</svg>